<?xml version="1.0" encoding="UTF-8" standalone="no"?>
<svg
   version="1.0"
   width="1364.097pt"
   height="258.12936pt"
   viewBox="0 0 1364.0971 258.12936"
   preserveAspectRatio="xMidYMid"
   id="svg5"
   sodipodi:docname="logo_ca.svg"
   inkscape:version="1.3.2 (091e20e, 2023-11-25, custom)"
   inkscape:export-filename="logo_ca.png"
   inkscape:export-xdpi="300"
   inkscape:export-ydpi="300"
   xmlns:inkscape="http://www.inkscape.org/namespaces/inkscape"
   xmlns:sodipodi="http://sodipodi.sourceforge.net/DTD/sodipodi-0.dtd"
   xmlns:xlink="http://www.w3.org/1999/xlink"
   xmlns="http://www.w3.org/2000/svg"
   xmlns:svg="http://www.w3.org/2000/svg">
  <defs
     id="defs5">
    <linearGradient
       id="linearGradient17"
       inkscape:collect="always">
      <stop
         style="stop-color:#2a7fff;stop-opacity:1;"
         offset="0"
         id="stop16" />
      <stop
         style="stop-color:#1fd160;stop-opacity:1;"
         offset="1"
         id="stop17" />
    </linearGradient>
    <linearGradient
       id="linearGradient14"
       inkscape:collect="always">
      <stop
         style="stop-color:#1fd160;stop-opacity:1;"
         offset="0"
         id="stop14" />
      <stop
         style="stop-color:#2a7fff;stop-opacity:1;"
         offset="1"
         id="stop15" />
    </linearGradient>
    <linearGradient
       id="linearGradient6"
       inkscape:collect="always">
      <stop
         style="stop-color:#2a7fff;stop-opacity:1;"
         offset="0"
         id="stop6" />
      <stop
         style="stop-color:#17f780;stop-opacity:1;"
         offset="1"
         id="stop7" />
    </linearGradient>
    <linearGradient
       inkscape:collect="always"
       xlink:href="#linearGradient17"
       id="linearGradient7"
       x1="289.77478"
       y1="3471.0103"
       x2="2370.7083"
       y2="1477.8613"
       gradientUnits="userSpaceOnUse" />
    <linearGradient
       inkscape:collect="always"
       xlink:href="#linearGradient6"
       id="linearGradient9"
       gradientUnits="userSpaceOnUse"
       x1="289.77478"
       y1="3471.0103"
       x2="4585"
       y2="360"
       gradientTransform="matrix(0.48776926,0,0,0.48776926,148.43162,1372.0153)" />
    <linearGradient
       inkscape:collect="always"
       xlink:href="#linearGradient6"
       id="linearGradient10"
       gradientUnits="userSpaceOnUse"
       x1="289.77478"
       y1="3471.0103"
       x2="4585"
       y2="360"
       gradientTransform="matrix(0.48776926,0,0,0.48776926,148.43162,1372.0153)" />
    <linearGradient
       inkscape:collect="always"
       xlink:href="#linearGradient6"
       id="linearGradient11"
       gradientUnits="userSpaceOnUse"
       x1="289.77478"
       y1="3471.0103"
       x2="4585"
       y2="360"
       gradientTransform="matrix(0.48776926,0,0,0.48776926,148.43162,1372.0153)" />
    <linearGradient
       inkscape:collect="always"
       xlink:href="#linearGradient6"
       id="linearGradient12"
       gradientUnits="userSpaceOnUse"
       x1="289.77478"
       y1="3471.0103"
       x2="4585"
       y2="360"
       gradientTransform="matrix(0.48776926,0,0,0.48776926,148.43162,1372.0153)" />
    <linearGradient
       inkscape:collect="always"
       xlink:href="#linearGradient6"
       id="linearGradient13"
       gradientUnits="userSpaceOnUse"
       x1="289.77478"
       y1="3471.0103"
       x2="4585"
       y2="360"
       gradientTransform="matrix(0.48776926,0,0,0.48776926,148.43162,1372.0153)" />
    <linearGradient
       inkscape:collect="always"
       xlink:href="#linearGradient14"
       id="linearGradient15"
       x1="254.14062"
       y1="129.06468"
       x2="1268.5254"
       y2="129.06468"
       gradientUnits="userSpaceOnUse"
       gradientTransform="translate(-1.5721462e-7)" />
  </defs>
  <sodipodi:namedview
     id="namedview5"
     pagecolor="#ffffff"
     bordercolor="#000000"
     borderopacity="0.25"
     inkscape:showpageshadow="2"
     inkscape:pageopacity="0.0"
     inkscape:pagecheckerboard="0"
     inkscape:deskcolor="#d1d1d1"
     inkscape:document-units="pt"
     inkscape:zoom="0.53592802"
     inkscape:cx="946.95553"
     inkscape:cy="967.48067"
     inkscape:window-width="3840"
     inkscape:window-height="2054"
     inkscape:window-x="2549"
     inkscape:window-y="-11"
     inkscape:window-maximized="1"
     inkscape:current-layer="svg5" />
  <metadata
     id="metadata1">
Created by potrace 1.16, written by Peter Selinger 2001-2019
</metadata>
  <g
     transform="matrix(0.12903919,0,0,-0.12903919,-37.392302,438.69782)"
     fill="#000000"
     stroke="none"
     id="g5"
     style="fill:url(#linearGradient7)">
    <path
       d="m 1067.3889,3393.8189 c -272.66308,-40.4848 -492.15928,-178.0358 -638.49008,-399.9708 -122.9178,-187.3034 -167.3048,-429.2369 -121.4545,-663.3662 33.1683,-168.2803 139.502,-349.7305 275.5896,-470.6973 52.1913,-45.8503 141.9409,-106.8215 200.961,-136.0877 52.679,-25.8517 140.9653,-55.6056 201.9365,-68.2876 56.58118,-11.7065 140.96528,-21.9496 147.79408,-17.5597 2.9266,1.4633 4.3899,78.043 4.3899,197.5465 l -0.4878,194.62 -22.4374,2.9266 c -108.2848,14.6331 -174.13358,39.5093 -247.29898,93.6516 -91.7006,68.2878 -157.5495,163.4027 -188.7667,272.1753 -9.2676,33.6561 -11.2187,50.728 -11.2187,119.5035 0,69.2632 1.4633,86.3352 11.2187,121.9423 23.9007,87.7985 55.6057,144.8675 116.089,209.253 78.5309,83.8964 175.1092,131.6977 294.61268,146.8186 l 46.3381,5.8532 -0.9755,198.0343 -0.9756,198.5221 -11.2187,0.9755 c -6.341,0.4878 -31.2172,-2.4388 -55.6056,-5.8532 z"
       id="path1"
       style="fill:url(#linearGradient9);stroke-width:0.487769" />
    <path
       d="m 1231.2793,3330.4089 c 0,-75.6042 -5.8532,-67.7999 58.0446,-73.1654 74.6286,-6.341 210.7163,-57.5568 293.637,-110.7236 127.3078,-81.4575 244.3725,-228.276 292.6616,-367.778 29.7539,-85.3597 39.0215,-138.0387 41.9481,-233.1537 3.9022,-127.7956 -11.2186,-223.8861 -50.7279,-323.8788 -64.8733,-165.3538 -191.2056,-304.8558 -345.8285,-382.8989 -62.9222,-31.705 -178.0357,-63.41 -254.6155,-69.751 l -39.9971,-3.4144 v -63.41 -63.41 l 50.2403,2.9266 c 145.3552,9.2677 314.1233,78.0431 436.0657,177.5481 15.6086,13.1697 32.1927,26.3395 37.0704,30.2416 8.2921,6.341 12.682,3.4144 49.2647,-33.1683 l 40.4849,-40.4848 70.2387,71.7021 c 38.5338,39.5093 71.2144,73.6531 72.1899,76.5797 0.9755,2.9266 -17.5597,24.3885 -40.9726,47.8014 l -42.4359,42.436 19.9985,31.7049 c 88.2863,139.9898 139.9898,369.7291 122.9179,545.3261 -20.9741,218.0328 -102.4316,392.6542 -254.1278,546.3016 -149.2574,151.2085 -320.9522,234.617 -527.7663,255.591 l -28.2907,2.9266 z m 180.4746,-14.1453 c 72.1899,-22.9251 162.4272,-62.9222 181.9379,-79.9942 10.2432,-9.2676 10.731,-26.8273 0.4878,-35.6071 -6.341,-5.3655 -14.6331,-2.9266 -54.1424,17.0719 -59.02,29.7539 -102.9192,47.8014 -155.1106,63.8978 -32.6805,9.7554 -41.4604,14.6331 -41.4604,21.9496 0,27.8029 12.682,30.2417 68.2877,12.682 z"
       id="path2"
       style="fill:url(#linearGradient10);stroke-width:0.487769" />
    <path
       d="m 1231.2793,3050.9171 v -105.8459 l -79.5064,-0.4878 c -70.7265,-0.4877 -83.4085,-1.951 -121.9423,-13.6575 -77.55528,-23.4129 -138.52638,-59.9957 -191.69338,-115.6013 -74.6286,-78.5308 -111.6991,-167.3049 -117.5523,-280.9551 -6.341,-123.4056 39.997,-239.9825 130.7221,-326.3176 39.5094,-37.5583 68.2878,-56.5813 119.5035,-80.482 66.33658,-31.2172 106.33378,-39.5093 186.81558,-37.5582 l 68.7755,1.4633 0.4878,-39.0216 c 0.4877,-21.4618 0.9755,-52.1912 1.4633,-68.2876 0.4877,-16.0964 1.4633,-46.3382 1.9511,-66.8245 l 0.9755,-38.046 h 21.4619 c 45.8503,0 137.5509,25.364 207.3019,57.069 65.8488,29.754 150.7207,92.6762 139.0142,102.9194 -39.0215,34.6316 -225.8372,206.3264 -230.7149,212.1796 -8.7798,11.2187 -12.6819,10.7309 -37.5582,-6.8288 -49.7524,-34.1438 -104.3826,-49.2646 -177.548,-48.7769 -59.5078,0 -93.6517,7.8043 -143.4042,32.6806 -79.01848,39.5092 -132.67318,100.9682 -160.47608,181.9379 -60.4833,179.0113 43.4116,367.778 228.27608,415.0916 70.2388,18.0475 145.843,9.7554 211.6919,-22.4374 45.8503,-22.4373 114.6257,-87.3106 135.5998,-126.3322 l 13.6576,-26.8273 h 177.0602 c 203.8876,0 183.889,-7.3166 164.866,59.5079 -44.8748,154.135 -164.866,299.978 -309.7335,376.0701 -71.7021,38.046 -142.4286,59.9956 -218.5206,68.2876 l -20.9741,2.4389 z"
       id="path3"
       style="fill:url(#linearGradient11);stroke-width:0.487769" />
    <path
       d="m 1428.8259,2368.528 c -4.39,-9.7554 -6.8288,-19.5108 -6.341,-20.9741 0.9755,-1.9511 22.4374,-22.9252 48.2891,-46.8259 25.364,-23.9007 73.6532,-68.7755 107.3092,-99.9927 33.1684,-30.7294 68.2878,-63.41 78.0432,-71.7021 l 18.0474,-15.6086 24.8762,36.5827 c 14.1453,20.4863 35.1194,57.069 46.8259,81.9452 19.5107,41.4604 46.3381,125.8445 46.3381,146.3308 0,7.8043 -11.7065,8.2921 -178.0358,8.2921 h -178.0358 z"
       id="path4"
       style="fill:url(#linearGradient12);stroke-width:0.487769" />
    <path
       d="m 2014.6368,1899.7816 c -16.0964,-18.0474 -59.5079,-64.3855 -96.5784,-103.407 -37.0704,-38.5338 -66.8243,-71.7021 -66.3366,-73.6532 0.9756,-1.9511 69.751,-70.2387 152.6718,-151.6962 171.207,-167.7926 176.5725,-171.207 236.5681,-171.6948 60.4833,0 102.9193,25.8518 129.7466,78.5309 12.1943,24.8762 14.1453,33.656 14.1453,69.7509 0,68.7756 -14.633,89.2619 -151.2084,214.6185 -16.0964,14.6331 -63.41,59.0201 -105.3582,99.0172 -41.9482,39.5093 -78.5309,71.702 -80.4819,71.702 -2.4389,-0.4877 -17.5597,-15.1208 -33.1683,-33.1683 z m 177.548,-181.4501 c 105.8459,-97.0661 111.6991,-103.8948 102.4315,-114.6257 -3.4144,-3.9022 -8.7799,-7.3166 -12.682,-7.3166 -10.2432,0 -201.9365,184.8646 -201.9365,194.62 0,9.7553 3.9022,15.1208 11.7065,15.1208 2.9266,0 48.2891,-39.5094 100.4805,-87.7985 z"
       id="path5"
       style="fill:url(#linearGradient13);stroke-width:0.487769" />
  </g>
  <text
     xml:space="preserve"
     style="font-weight:bold;font-size:200px;font-family:Comfortaa;-inkscape-font-specification:'Comfortaa Bold';fill:url(#linearGradient15);fill-opacity:1;stroke:none;stroke-width:2.585;stroke-linejoin:round;stroke-dasharray:none"
     x="243.03313"
     y="184.76468"
     id="text7"><tspan
       sodipodi:role="line"
       style="font-style:normal;font-variant:normal;font-weight:bold;font-stretch:normal;font-size:200px;font-family:Comfortaa;-inkscape-font-specification:'Comfortaa Bold';fill:url(#linearGradient15);fill-opacity:1;stroke:none;stroke-width:2.585;stroke-dasharray:none"
       x="243.03313"
       y="184.76468"
       id="tspan8">omperator</tspan></text>
</svg>
